# xmcd
# Copyright (C) 1995-1998 Ti Kan
#
# Track frame offsets:
#       150
#       13045
#       32340
#       55652
#       77580
#       104870
#       122165
#       140967
#       158402
#       165342
#       188082
#       205295
#
# Disc length: 3002 seconds
#
# Revision: 0
# Processed by: cddbd v1.5.2PL0 Copyright (c) Steve Scherf et al.
# Submitted via: CD-Import v1.0
#
DISCID=980bb80c
DTITLE=Diamond Dogs - Libido
DYEAR=1995
DGENRE=
TTITLE0=Crazy
TTITLE1=Slippin' Into Addiction
TTITLE2=Every Child
TTITLE3=No Name
TTITLE4=Kill The Pain
TTITLE5=Permanently High
TTITLE6=Libido
TTITLE7=What Is Love
TTITLE8=Mama Went Down ... But I Wanted Milk
TTITLE9=Welcome To The Underground
TTITLE10=Mother's Ruin
TTITLE11=Next Big Thing
EXTD=
EXTT0=
EXTT1=
EXTT2=
EXTT3=
EXTT4=
EXTT5=
EXTT6=
EXTT7=
EXTT8=
EXTT9=
EXTT10=
EXTT11=
PLAYORDER=
